<?xml version="1.0" encoding="utf-8"?>
<!-- Generator: Adobe Illustrator 19.0.0, SVG Export Plug-In . SVG Version: 6.00 Build 0)  -->
<svg version="1.1" id="layout" xmlns="http://www.w3.org/2000/svg" xmlns:xlink="http://www.w3.org/1999/xlink" x="0px" y="0px"
	 viewBox="0 0 652.5 529.5" style="enable-background:new 0 0 652.5 529.5;" xml:space="preserve">
<style type="text/css">
	.st0{fill:#7C828B;}
	.st1{fill:#C5CED6;}
	.st2{fill:#414042;}
	.st3{fill:#E6E7E8;}
	.st4{fill:#808285;}
	.st5{fill:#A7A9AC;}
	.st6{fill:#58595B;}
</style>
<g id="desktop">
	<polygon id="XMLID_49_" class="st0" points="403,505.4 246.2,505.4 255.2,438 395.3,438 	"/>
	<path id="XMLID_48_" class="st1" d="M15.4,381.5v41.7c0,8.5,6.9,15.4,15.4,15.4h587.6c8.5,0,15.4-6.9,15.4-15.4v-41.7H15.4z"/>
	<path id="XMLID_47_" class="st2" d="M633.8,27.7c0-8.5-6.9-15.4-15.4-15.4H30.8c-8.5,0-15.4,6.9-15.4,15.4v353.7h618.4V27.7z"/>
	<rect id="XMLID_46_" x="37.2" y="32.9" class="st3" width="574.8" height="328.1"/>
	<polygon id="XMLID_45_" class="st1" points="246.2,505.4 403,505.4 430.6,511.9 218.6,512.1 	"/>
	<polygon id="XMLID_44_" class="st0" points="429.1,515.6 220.1,515.6 218.7,512.1 430.6,511.9 	"/>
	<path id="XMLID_43_" class="st2" d="M335.6,411.8c0,6.1-4.9,11-11,11c-6.1,0-11-4.9-11-11c0-6.1,4.9-11,11-11
		C330.7,400.8,335.6,405.7,335.6,411.8z"/>
</g>
<g id="lapi">
	<path id="XMLID_38_" class="st2" d="M526.1,56.4H143.8c-5.3,0-9.6,4.3-9.6,9.6v254.7h401.5V66C535.7,60.7,531.4,56.4,526.1,56.4z"
		/>
	<rect id="XMLID_37_" x="152.1" y="73" class="st3" width="366.2" height="235.3"/>
	<polygon id="XMLID_36_" class="st0" points="578.7,344.5 90.5,344.5 66.4,335.7 602.8,335.7 	"/>
	<path id="XMLID_35_" class="st4" d="M336.3,66.3c0,0.9-0.8,1.7-1.7,1.7c-0.9,0-1.7-0.8-1.7-1.7c0-0.9,0.8-1.7,1.7-1.7
		C335.5,64.6,336.3,65.4,336.3,66.3z"/>
	<rect id="XMLID_34_" x="291" y="320.7" class="st5" width="86.9" height="8.8"/>
	<path id="XMLID_33_" class="st1" d="M371,320.7v3.2c0,2.2-1.8,4-4,4h-65c-2.2,0-4-1.8-4-4v-3.2H66.4v15h536.4v-15H371z"/>
</g>
<g id="tab">
	<path id="XMLID_6_" class="st2" d="M427.9,313c0,6.7-5.5,12.1-12.2,12.1H229.5c-6.7,0-12.1-5.5-12.1-12.1V63.6
		c0-6.7,5.5-12.2,12.1-12.2h186.3c6.7,0,12.2,5.5,12.2,12.2V313z"/>
	<rect id="XMLID_5_" x="237.7" y="74.8" class="st3" width="169.7" height="227.1"/>
	<path id="XMLID_4_" class="st6" d="M325.3,64c0,1.5-1.2,2.7-2.7,2.7c-1.5,0-2.7-1.2-2.7-2.7c0-1.5,1.2-2.7,2.7-2.7
		C324.1,61.3,325.3,62.5,325.3,64z"/>
	<path id="XMLID_3_" class="st4" d="M327.3,312.7c0,2.6-2.1,4.7-4.7,4.7c-2.6,0-4.7-2.1-4.7-4.7c0-2.6,2.1-4.7,4.7-4.7
		C325.2,307.9,327.3,310,327.3,312.7z"/>
</g>
<g id="mobile">
	<g id="XMLID_11_">
		<path id="XMLID_12_" class="st2" d="M366.1,256.1c0,6.2-5.1,11.4-11.4,11.4h-50.2c-6.3,0-11.4-5.1-11.4-11.4V125.2
			c0-6.2,5.1-11.4,11.4-11.4h50.2c6.2,0,11.4,5.1,11.4,11.4V256.1z"/>
	</g>
	<rect id="XMLID_10_" x="298.5" y="134.8" class="st3" width="62.3" height="112.3"/>
	<path id="XMLID_9_" class="st4" d="M334.7,256.2c0,2.8-2.3,5.1-5.1,5.1c-2.8,0-5.1-2.3-5.1-5.1c0-2.8,2.3-5.1,5.1-5.1
		C332.4,251,334.7,253.3,334.7,256.2z"/>
	<path id="XMLID_8_" class="st6" d="M335.1,127.6c0,0.8-0.7,1.5-1.5,1.5H324c-0.8,0-1.5-0.7-1.5-1.5l0,0c0-0.8,0.7-1.5,1.5-1.5h9.6
		C334.4,126.1,335.1,126.8,335.1,127.6L335.1,127.6z"/>
</g>
</svg>
