<?xml version="1.0" encoding="utf-8"?>
<!-- Generator: Adobe Illustrator 19.0.0, SVG Export Plug-In . SVG Version: 6.00 Build 0)  -->
<svg version="1.1" id="Layer_1" xmlns="http://www.w3.org/2000/svg" xmlns:xlink="http://www.w3.org/1999/xlink" x="0px" y="0px"
	 viewBox="0 0 285 548.7" style="enable-background:new 0 0 285 548.7;" xml:space="preserve">
<style type="text/css">
	.st0{fill:#FFFFFF;}
</style>
<g id="XMLID_4_">
	<path id="XMLID_432_" class="st0" d="M183.8,177.1c-1.1-1.1-2.2-2.2-3.2-3.3l-0.6,0.1c-0.1,1.6-0.3,3.3-0.4,4.9
		c-4-3.1-8-6.4-12.1-9.4c-2.1-1.6-4.5-2.7-6.6-4.3c-0.2-0.1,0.9-1.9,1.3-2.9c2,1.3,3.9,2.6,6,3.8c0.3,0.2,1-0.4,2.6-1.1
		c-3.5-6.4-7.7-8.8-14.1-4.7c0-9.6,0.7-18.7-0.2-27.7c-0.9-9.3-5.6-11.9-17.1-9.9c3.6,4.1,6.2,7.8,9.5,10.8
		c6.8,6.2,7.3,13.2,3.4,20.9c-5.8,11.3-18.1,18-20.9,32c-1.3,6.3-8.3,11.4-12.7,17c-5.2-8.9-10.5-18-17.1-29.2
		c8.2,0,14.4,1.5,19.1-0.4c4.6-1.9,11.7-8.9,10.9-10.9c-3.4-8.3-0.2-14.8,2.2-22.1c2.9-8.9,4.6-18.2,6.9-27.4
		c-0.9-0.6-1.8-1.1-2.6-1.7c-4.2,8.9-11.1,10.4-19.3,8.6l0.3,0.2c-2.5-2-5.5-6.2-7.5-5.8c-8.2,1.7-16.2,4.9-24.2,7.5
		c4.3-4.9,8.6-9.8,13-14.7c-4.4-0.9-8.5,0.2-12.7,1c-6.7,1.4-7.9,4.3-2.9,9.3c1.2,1.2,2.2,2.7,3.3,4.1c-8.1,0-16.1,0-25.3,0
		c4.8,6.4,9.1,13.5,14.8,19.2c5.2,5,4.4,7.7-1.2,10.7c-3.6,1.9-7.2,3.9-11.1,6.1c2.5,0.7,4.5,1.3,6.4,1.9
		c-8.7,7.5-17,14.7-25.4,21.9c-2.5-0.8-5.7-2.9-8.5-2.5c-5.4,0.8-14.7,16-14.5,22c1.2,34.9,2.2,69.8,3.6,104.7
		c1.1,27.7-5.8,55.5,1.4,83.1c0.4,1.6-0.2,3.5-0.3,5.3c-0.7,15-1.5,30-1.8,44.9c0,2.2,2,4.7,3.5,6.6c1.9,2.4,4,4.7,6.4,6.6
		c5.6,4.5,11.3,9,17.4,12.7c1.4,0.9,4.7-1.4,8.6-2.7c0.6,3.5,0.8,8.3,2.4,12.5c3.8,9.7,0,23.6,15.6,27.6c0,6.5,0,13.4,0,20.2
		c0.7,0.1,1.3,0.2,2,0.4c1-1.7,1.9-3.5,3.5-6.2c1.1,2.7,1.6,4.3,2.3,5.9c0.8,1.8,1.8,3.6,2.9,5.6c2.1-1.3,3.8-2.4,5.5-3.4l-0.2-0.2
		c5.5,8,4.3,11.6-4.8,14.5c-1.9,0.6-3.8,1.3-5.7,1.9c-1.3-2.3-2.6-4.5-4.4-7.6c-0.3,5.6-0.5,10.5-0.7,15.4c7.5-0.4,7.5-0.4,4.8-8.1
		c5.5,2.9,10.8,6.4,16.6,8.4c4.3,1.5,9.4,0.9,14.1,1.2c11.7,0.8,11.9,0.2,12.1-11.2c0.2-12.7,1-25.3,2.2-37.9
		c0.3-2.6,3.8-4.9,5.8-7.4c1.7,2.2,4.3,4.2,4.9,6.7c4,15.3,7.7,30.8,11.5,46.6c11.5,0,23.2,1.2,34.5-0.4c7.5-1.1,17.4,5.8,22.4-3.5
		c3.9-7.4,5.2-16.2,7.3-24.4c0.8-3.1,0.5-6.5,0.4-9.7c-0.4-9-1.3-17.9,8.4-23.4c1.6-0.9,2.3-4.1,2.6-6.3c2.2-15.8,3.5-31.9,6.5-47.5
		c3.4-17.3,8.2-34.3,12.8-51.3c0.6-2.2,3.4-4.4,5.7-5.6c6.4-3.2,9.1-7.7,7.7-15c-1.4-7.2-2.9-14.6-2.8-21.9
		c0.1-19.7,1.9-39.4,1.2-59.1c-1.1-28.3-0.9-57.1-17.4-82.5c-1.2,1.5-2.1,2.7-4.1,5.2c0.4-10.3-1-18.6-11.1-20.2
		c-10.7-1.7-22.1,0.1-30.8-8.5c-0.1-0.1-0.9,0.5-1.4,0.7c0.3,2.8,0.7,5.6,1.1,9.6c-4.1-1-7.1-1.8-10.2-2.5l0.3,0.4
		c-1.9-0.4-3.9-0.7-5.8-1.1c1.4-0.9,2.7-1.9,4.1-2.8L183.8,177.1z M142.6,75.9c-1.7-4.3-3.5-7.3-4.1-10.5
		c-4.2-21.3-15.2-38.1-33.1-50.3c-3.1-2.1-6.4-6-9.4-5.8c-6.2,0.5-12.3,4.2-17.7-2C78,7,74.7,9.5,72.8,10.6
		c-5.6,3.3-10.9,7.5-16.9,9.5c-9.3,3.1-16.4,10.5-16.4,20.2c0,6.1,2.1,12.3,1.7,18.4c-1.2,16.4,6.5,29.6,13.8,43.2
		c0.8,1.5,2.1,3.3,3.6,3.7c10.7,3,24-9.4,21.9-21.4c-6.5,0.5-13.2,0.9-20.4,1.4c-1-3.5-3.2-7.2-2.9-10.7c0.4-4.6,1.6-12.3,4.3-13.1
		c11-3.4,21.9-10.4,34.1-4.6c5.7,2.7,10.9,7.5,16.9,8.6c9.6,1.8,14,8,17.7,15.6c1.7,3.5,3,7.2,4.2,10.2c1.8-3.1,3.4-6,5.2-9.1
		c-1.1-1.6-2.6-3.9-4.8-7.3C138.1,75.5,139.9,75.7,142.6,75.9z M84.8,79.4c0.1,1.6,0.2,3.2,0.3,4.8c7.3,1.4,14.6,2.8,21.9,4.2
		c0.2-0.8,0.4-1.6,0.6-2.4c-0.7-1-1.5-2-2.7-3.6c2.4-0.6,4.8-0.5,6.2-1.6c2.2-1.7,3.8-4.3,5.7-6.5c-2.7-1.7-6-5.5-7.9-4.9
		C100.6,72,92.8,75.9,84.8,79.4z"/>
	<path id="XMLID_421_" d="M185.2,180.5c3,0.7,6.1,1.5,10.2,2.5c-0.5-4-0.8-6.8-1.1-9.6c0.5-0.3,1.3-0.8,1.4-0.7
		c8.7,8.6,20.2,6.9,30.8,8.5c10.1,1.6,11.5,9.9,11.1,20.2c2-2.5,2.9-3.7,4.1-5.2c16.5,25.4,16.4,54.2,17.4,82.5
		c0.7,19.7-1.1,39.4-1.2,59.1c0,7.3,1.4,14.7,2.8,21.9c1.4,7.3-1.3,11.8-7.7,15c-2.3,1.2-5.1,3.3-5.7,5.6c-4.6,17-9.4,34-12.8,51.3
		c-3.1,15.7-4.3,31.7-6.5,47.5c-0.3,2.2-1,5.4-2.6,6.3c-9.7,5.5-8.9,14.4-8.4,23.4c0.2,3.2,0.4,6.6-0.4,9.7
		c-2,8.3-3.4,17.1-7.3,24.4c-5,9.4-14.9,2.5-22.4,3.5c-11.3,1.6-22.9,0.4-34.5,0.4c-3.9-15.8-7.5-31.3-11.5-46.6
		c-0.7-2.5-3.2-4.5-4.9-6.7c-2,2.4-5.5,4.7-5.8,7.4c-1.3,12.6-2,25.3-2.2,37.9c-0.2,11.4-0.4,12-12.1,11.2
		c-4.7-0.3-9.8,0.3-14.1-1.2c-5.8-2-11.1-5.5-16.6-8.4l0.3,0.3c1.9-0.6,3.8-1.3,5.8-1.9c9.1-2.9,10.3-6.5,4.8-14.5
		c5.7,0.4,8.3-2.3,7.6-7.9c-0.6-5.3-8.6-8.5-19.2-7.2c4.7,3.8,8.7,6.9,12.4,9.9c-0.2,1.5-0.4,3.4-0.7,5.3c-1.7,1-3.4,2.1-5.5,3.4
		c-1.1-2.1-2-3.8-2.9-5.6c-0.7-1.5-1.3-3.2-2.3-5.9c-1.5,2.7-2.5,4.5-3.5,6.2c-0.7-0.1-1.3-0.2-2-0.4c0-6.8,0-13.6,0-20.2
		c-15.6-4-11.9-17.9-15.6-27.6c-1.6-4.2-1.8-9-2.4-12.5c-3.8,1.3-7.1,3.5-8.6,2.7c-6.1-3.7-11.8-8.2-17.4-12.7
		c-2.4-1.9-4.6-4.2-6.4-6.6c-1.5-2-3.6-4.4-3.5-6.6c0.3-15,1.2-30,1.8-44.9c0.1-1.8,0.7-3.7,0.3-5.3c-7.1-27.6-0.3-55.4-1.4-83.1
		c-1.3-34.9-2.4-69.8-3.6-104.7c-0.2-6,9.1-21.2,14.5-22c2.8-0.4,5.9,1.7,8.5,2.5c8.3-7.2,16.6-14.4,25.4-21.9
		c-1.9-0.6-3.9-1.2-6.4-1.9c4-2.2,7.5-4.2,11.1-6.1c5.5-3,6.4-5.6,1.2-10.7c-5.7-5.6-10-12.7-14.8-19.2c9.2,0,17.3,0,25.3,0
		c-0.3-0.1-0.5,0-0.7,0.3c8-2.6,16-5.8,24.2-7.5c2-0.4,5,3.7,7.5,5.8c-9.6-1.3-17.9,1.5-26.6,7.8c6,0.7,10.6,1.3,15.2,1.8
		c0.1,1.2,0.2,2.3,0.3,3.5c-4.7,2.4-9.4,4.8-14.1,7.2c4.6,5.7,14,5.6,21.8,0.1c7.4-5.3,8.5-12.3,3.1-20.6c8.2,1.8,15.2,0.3,19.3-8.6
		c0.9,0.6,1.8,1.1,2.6,1.7c-2.2,9.1-3.9,18.5-6.9,27.4c-2.4,7.3-5.5,13.8-2.2,22.1c0.8,2-6.3,9-10.9,10.9
		c-4.8,1.9-10.9,0.4-19.1,0.4c6.6,11.3,11.9,20.3,17.1,29.2c4.4-5.6,11.4-10.7,12.7-17c2.8-14,15.1-20.7,20.9-32
		c4-7.7,3.5-14.7-3.4-20.9c-3.3-3-5.9-6.7-9.5-10.8c11.5-2,16.2,0.6,17.1,9.9c0.9,9,0.2,18.1,0.2,27.7c6.4-4.1,10.6-1.7,14.1,4.7
		c-1.6,0.7-2.3,1.2-2.6,1.1c-2-1.2-4-2.5-6-3.8c-0.5,1-1.5,2.7-1.3,2.9c2.1,1.6,4.5,2.7,6.6,4.3c4.1,3,8.1,6.3,12.1,9.4
		c0.2,0.2,0.2,0.5,0.2,0.9c1.9,0.4,3.9,0.7,5.8,1.1C185.5,180.8,185.2,180.5,185.2,180.5z M178.1,212l0.2,0.2
		c-0.9-2.1-1.9-4.2-2.8-6.3c-1.2-3.6-2.3-7.2-3.5-10.7l0.3-0.2c-17.7,1.1-17.7,1.1-18.4,11.1l0.2-0.2c-1.6,0.6-3.2,1.3-4.8,1.9
		c0,0,0.3-0.3,0.3-0.3c-0.7,1-1.4,2-2,3c-0.6,0.5-1.2,1-1.8,1.5c0.1,1,0.1,1.9,0.2,2.9c-1,0-2-0.1-2.9-0.1l0.3,0
		c-1.6,0.6-3.2,1.3-4.8,1.9l0.3-0.3c-0.7,1-1.3,2-2,3c0.5,0.9,0.9,1.7,1.4,2.6c0,0,0-0.1,0-0.1c0,1.5,0,3,0.1,4.5l0-0.2
		c0.2,1.6,0.3,3.3,0.5,4.9c-1.6-0.1-3.2-0.1-4.8-0.2c-0.3,1.4-0.5,2.9-0.8,4.3c0.6,1.6,1.3,3.2,1.9,4.8l-0.3-0.3c1,0.7,2,1.3,3,2
		c0.5,0,1,0,1.5,0c1-1,1.9-1.9,2.9-2.9c0.1-0.7,0.2-1.5,0.3-2.2c1.3-0.7,2.6-1.4,3.9-2.1c2.5,0.6,4.9,1.2,7.4,1.8
		c2,1.3,4.1,2.6,6.1,3.9c0,0-0.1-0.1-0.1-0.1c1.9-0.7,3.7-1.5,5.6-2.2c0,0-0.3,0.2-0.3,0.2c0.6-1.6,1.3-3.2,1.9-4.8l0.1,0.3
		c-1-1-1.9-1.9-2.9-2.9c-0.8,0.4-1.7,0.9-2.5,1.3c0,0,0.3,0,0.3,0c-2.2,0.2-4.5,0.3-6.7,0.5l0.3,0c-1,0.1-2,0.1-2.9,0.2
		c0.1-1,0.1-2,0.2-3c0-0.5,0-1,0-1.5c0-1.3,0-2.6,0-3.9c0,0,0.2,0.2,0.2,0.2c-0.1-1-0.2-1.9-0.3-2.9c1.6,0.1,3.1,0.2,4.7,0.2
		l-0.3-0.1c1.3,0,2.6,0,3.9,0l-0.3,0c1.9,0,3.8,0,5.6,0c1.4,0.2,2.8,0.3,4.3,0.5c0,0-0.3,0-0.3,0c2-0.8,4-1.6,5.9-2.4l-0.3,0.3
		c0.7-1,1.3-2,2-3c0-0.5-0.1-1,0-1.5C178,214.6,178,213.3,178.1,212z M89.1,216.6l-0.4-0.3l0.7,0c0.1,0.2,0.3,0.4,0.4,0.6
		C89.5,216.9,89.3,216.7,89.1,216.6z M90.7,256c0,0-0.2-0.3-0.2-0.3c1.3,0,2.6,0,4,0c0,0-0.1,0.3-0.1,0.3c-0.3-0.7-0.7-1.4-1-2.1
		c-0.6,0-1.1,0-1.7,0C91.4,254.6,91.1,255.3,90.7,256z M216.9,400.3c-0.5-14.5,8.2-29.7-2.2-43.5c0,13-0.1,26,0.1,39
		c0,1.4,1.5,2.8,2.3,4.3c-1.6,6-4.3,11.9-4.4,17.9c-0.1,3,4.2,6.5,7.2,9c0.6,0.6,5.1-1.4,5.7-3c3.2-8.2,6.1-16.5,8.2-25.1
		c1.2-4.7,1.2-10.1,0.4-14.9c-0.5-2.5-3.8-5.2-6.4-6.1c-1.2-0.4-4.7,3.1-5.6,5.4C219.9,388.9,218.6,394.7,216.9,400.3z M52,410.6
		c9.6-5.2,5.8-13.2,6.5-20.6c1.4-14.3,4.5-28.5,7.2-42.6c2.4-12.3,3.7-24.4-2.9-37.2c-3.2,12-8.2,22.5-4.2,34.4
		c0.5,1.6,0.2,4.8-0.8,5.5c-13.8,8.4-10.4,22.6-11.7,35C45.2,393.8,44.9,402.9,52,410.6z M226,468.1c-0.6-6.3-2.1-13.1-1.7-19.7
		c0.7-11.7-8.8-13.6-15.9-15.8c-2.7-0.9-8.1,5.4-11.7,9.1c-2.2,2.2-4,5.6-4.4,8.6c-0.3,2.4,2.7,7.4,3,7.3c7.5-2.3,7.3,3.9,10,7.7
		c2.1,3,6.4,5.2,10.1,5.9C218.4,471.7,221.9,469.4,226,468.1z M36.1,405.8c0,10.4-0.2,20.8,0.2,31.2c0,1.5,2.2,3.3,3.8,4.4
		c0.6,0.4,2.8-0.6,3.6-1.6C49.9,431.9,47.1,411.5,36.1,405.8z M197.7,522.6c-1.8,1.1-4.9,3-8.9,5.4c0.6,3.4,1.3,7.6,2.1,12.1
		c3.3-0.6,6.3-0.2,7.9-1.6c4.8-3.8,6.7-18,2.9-22.9c-3.6-4.7-8.1-8.6-12.3-12.9c-0.5,0.3-1,0.6-1.5,0.8
		C191,509.6,194,515.5,197.7,522.6z M36.1,399.3c1.5-0.1,2.9-0.3,4.4-0.4c-1.1-12.5,2.5-25.4-2.6-37.5c-1.3,0.1-2.5,0.2-3.8,0.2
		C34.8,374.2,35.4,386.7,36.1,399.3z"/>
	<path id="XMLID_420_" d="M142.6,75.9c-2.7-0.2-4.6-0.4-7.8-0.7c2.2,3.3,3.7,5.6,4.8,7.3c-1.8,3.2-3.5,6.1-5.2,9.1
		c-1.2-3-2.5-6.7-4.2-10.2c-3.7-7.6-8.2-13.8-17.7-15.6c-6-1.1-11.1-5.9-16.9-8.6c-12.2-5.8-23.2,1.2-34.1,4.6
		c-2.6,0.8-3.9,8.5-4.3,13.1c-0.3,3.5,1.9,7.2,2.9,10.7c7.2-0.5,13.9-1,20.4-1.4c2.1,12.1-11.2,24.5-21.9,21.4
		c-1.4-0.4-2.8-2.2-3.6-3.7C47.7,88.4,40,75.1,41.2,58.7c0.4-6.1-1.6-12.3-1.7-18.4c-0.1-9.8,7.1-17.2,16.4-20.2
		c6-2,11.3-6.2,16.9-9.5C74.7,9.5,78,7,78.2,7.3c5.5,6.3,11.6,2.5,17.7,2c3-0.2,6.3,3.6,9.4,5.8c17.9,12.3,28.9,29,33.1,50.3
		C139.1,68.6,140.9,71.6,142.6,75.9z"/>
	<path id="XMLID_419_" d="M84.8,79.4c8-3.5,15.8-7.4,24-10c1.9-0.6,5.3,3.1,7.9,4.9c-1.9,2.2-3.4,4.8-5.7,6.5
		c-1.4,1.1-3.8,1-6.2,1.6c1.2,1.6,1.9,2.6,2.7,3.6c-0.2,0.8-0.4,1.6-0.6,2.4c-7.3-1.4-14.6-2.8-21.9-4.2C85,82.6,84.9,81,84.8,79.4z
		"/>
	<path id="XMLID_418_" d="M87.3,122.1c0.2-0.3,0.4-0.4,0.7-0.3c-1.1-1.4-2.1-2.9-3.3-4.1c-5-5-3.8-7.9,2.9-9.3
		c4.1-0.8,8.2-1.9,12.7-1C95.9,112.3,91.6,117.2,87.3,122.1z"/>
	<path id="XMLID_417_" d="M85.2,540.7c2.7,7.6,2.7,7.6-4.8,8.1c0.2-4.9,0.4-9.8,0.7-15.4c1.8,3.1,3.1,5.3,4.4,7.6
		C85.5,541,85.2,540.7,85.2,540.7z"/>
	<path id="XMLID_416_" d="M179.7,179.7c0.1-0.5,0-0.8-0.2-0.9c0.1-1.6,0.3-3.3,0.4-4.9c0.5,0.6,1.1,1.3,1.7,1.9l-0.3-0.2
		c0.8,0.5,1.7,0.9,2.5,1.4C182.5,177.8,181.1,178.8,179.7,179.7z"/>
	<path id="XMLID_415_" class="st0" d="M181.7,175.8c-0.6-0.6-1.1-1.3-1.7-1.9c0,0,0.6-0.1,0.6-0.1
		C180.9,174.4,181.3,175.1,181.7,175.8z"/>
	<path id="XMLID_414_" d="M181.7,175.8c-0.4-0.7-0.7-1.3-1.1-2c1.1,1.1,2.2,2.2,3.2,3.3c-0.8-0.5-1.6-1.1-2.4-1.6L181.7,175.8z"/>
	<path id="XMLID_413_" class="st0" d="M181.3,175.5c0.8,0.5,1.6,1,2.4,1.6c0,0,0-0.2,0-0.2C183,176.4,182.2,176,181.3,175.5z"/>
	<path id="XMLID_412_" d="M185.2,180.5c0,0,0.3,0.4,0.3,0.4C185.5,180.8,185.2,180.5,185.2,180.5z"/>
	<path id="XMLID_411_" class="st0" d="M52,410.6c-7-7.7-6.8-16.8-5.9-25.5c1.3-12.3-2.2-26.6,11.7-35c1-0.6,1.4-3.8,0.8-5.5
		c-4-11.9,1.1-22.4,4.2-34.4c6.7,12.8,5.3,24.9,2.9,37.2c-2.8,14.1-5.8,28.3-7.2,42.6C57.8,397.4,61.6,405.4,52,410.6z"/>
	<path id="XMLID_410_" class="st0" d="M226,468.1c-4.1,1.3-7.6,3.6-10.5,3c-3.7-0.7-8.1-2.9-10.1-5.9c-2.7-3.8-2.5-10-10-7.7
		c-0.3,0.1-3.3-4.9-3-7.3c0.3-3,2.2-6.3,4.4-8.6c3.5-3.6,9-9.9,11.7-9.1c7.1,2.3,16.6,4.1,15.9,15.8
		C223.9,455.1,225.4,461.8,226,468.1z"/>
	<path id="XMLID_409_" class="st0" d="M216.9,400.4c1.7-5.7,3-11.5,5.2-16.9c0.9-2.3,4.4-5.8,5.6-5.4c2.6,0.9,6,3.6,6.4,6.1
		c0.9,4.8,0.8,10.1-0.4,14.9c-2.1,8.5-5,16.9-8.2,25.1c-0.6,1.6-5.1,3.6-5.7,3c-2.9-2.6-7.2-6-7.2-9c0.1-6,2.8-12,4.4-17.9
		L216.9,400.4z"/>
	<path id="XMLID_408_" class="st0" d="M118.7,120.2c5.4,8.4,4.3,15.4-3.1,20.6c-7.8,5.6-17.2,5.6-21.8-0.1c4.7-2.4,9.4-4.8,14.1-7.2
		c-0.1-1.2-0.2-2.3-0.3-3.5c-4.6-0.6-9.2-1.1-15.2-1.8c8.6-6.3,17-9,26.6-7.8C119,120.4,118.7,120.2,118.7,120.2z"/>
	<path id="XMLID_407_" class="st0" d="M36.1,405.8c11,5.7,13.8,26.1,7.6,34c-0.7,0.9-2.9,2-3.6,1.6c-1.6-1-3.8-2.8-3.8-4.4
		C35.9,426.6,36.1,416.2,36.1,405.8z"/>
	<path id="XMLID_406_" class="st0" d="M197.7,522.6c-3.6-7.1-6.7-13-9.7-19c0.5-0.3,1-0.6,1.5-0.8c4.1,4.3,8.7,8.2,12.3,12.9
		c3.8,5,1.9,19.1-2.9,22.9c-1.7,1.3-4.7,1-7.9,1.6c-0.8-4.5-1.5-8.7-2.1-12.1C192.8,525.6,195.8,523.7,197.7,522.6z"/>
	<path id="XMLID_405_" class="st0" d="M36.1,399.3c-0.7-12.6-1.3-25.1-2-37.7c1.3-0.1,2.5-0.2,3.8-0.2c5.2,12.2,1.5,25,2.6,37.5
		C39,399,37.6,399.2,36.1,399.3z"/>
	<path id="XMLID_404_" class="st0" d="M153.9,206.1c0.7-10,0.7-10,18.4-11.1c0,0-0.3,0.2-0.3,0.2c1.2,3.6,2.3,7.2,3.5,10.7l-0.3-0.1
		l-0.5,0.1l-0.1-0.5c-0.9-0.5-1.7-0.9-2.6-1.4c-1.3,0-2.6,0-3.8,0l0.2-0.2c-1.8-0.1-3.6-0.1-5.4-0.2c0,0,0.3,0,0.3,0
		c-1.3,0.1-2.7,0.3-4,0.4c-0.8,0.4-1.6,0.9-2.4,1.3c0,0,0.3,0,0.3,0C155.9,205.6,154.9,205.8,153.9,206.1z"/>
	<path id="XMLID_403_" class="st0" d="M217.1,400.1c-0.8-1.4-2.3-2.8-2.3-4.3c-0.2-13-0.1-26-0.1-39c10.4,13.8,1.7,28.9,2.2,43.5
		C216.9,400.4,217.1,400.1,217.1,400.1z"/>
	<path id="XMLID_402_" class="st0" d="M96.3,524.8c0.2-1.9,0.5-3.9,0.7-5.3c-3.8-3-7.7-6.2-12.4-9.9c10.6-1.4,18.6,1.9,19.2,7.2
		c0.6,5.5-2,8.3-7.6,7.9C96,524.5,96.3,524.8,96.3,524.8z"/>
	<path id="XMLID_401_" d="M153.1,228.3c0,0.5,0,1,0,1.5c-0.6,1-1.2,2-1.8,3c-1.3,0-2.5,0.1-3.8,0.1c0,0-0.1-0.6-0.1-0.6l0.3,0.4
		c-0.4,0.6-0.7,1.2-1.1,1.8c-1.3,0.7-2.6,1.4-3.9,2.1c0,0-0.3-0.2-0.3-0.2c-0.1-0.7-0.2-1.4-0.2-2c0.2-0.2,0.6-0.4,0.5-0.5
		c-0.1-0.4-0.3-0.8-0.5-1.2c-0.6-0.6-1.2-1.1-1.8-1.7c0-1.3,0.1-2.5,0.1-3.8c0.6,0,1.2,0,1.8,0c1.2,0,2.3,0.1,3.5,0.1
		c0.6-0.6,1.3-1.2,1.9-1.9c1.2,0.1,2.5,0.2,3.7,0.3l-0.3-0.2C151.8,226.4,152.5,227.4,153.1,228.3z"/>
	<path id="XMLID_400_" d="M170.8,222.5c-1.4-0.2-2.8-0.3-4.3-0.5c-1.8-7.1-3.7-0.7-5.6,0c0,0,0.3,0,0.3,0c-1.3,0-2.6,0-3.9,0
		c0,0,0.3,0.1,0.3,0.1c-0.3-1.3-0.6-2.5-0.9-3.8l-0.2,0.3c0.6-0.7,1.2-1.4,1.9-2.1c1.2-0.6,2.3-1.2,3.5-1.8c0.7,0,1.3,0,2,0
		c0.3,0.4,0.5,0.8,0.8,1.2c0.3-0.4,0.5-0.8,0.8-1.2c1.3,0,2.5,0,3.8,0c0.6,1.3,1.2,2.6,1.7,3.9c0,0-0.2-0.4-0.2-0.4
		c0,0.7,0,1.4,0,2.1c0,0,0.1-0.3,0.1-0.3c0,0.7,0,1.4,0,2.2L170.8,222.5z"/>
	<path id="XMLID_399_" d="M154.1,205.9c0,0-0.2,0.2-0.2,0.2c1-0.2,2.1-0.4,3.1-0.6c-0.2,0.2-0.7,0.4-0.6,0.6c0,0.5,0.3,1,0.4,1.6
		c0,0.7,0,1.4,0,2.1c0,1.1,0,2.2,0,3.3c0,0.6,0,1.2,0,1.8c0,0.6,0,1.3,0,1.9c-0.1,0.6-0.1,1.3-0.2,1.9c0,0,0.2-0.3,0.2-0.3
		c-1.9-0.5-3.7-1.1-5.6-1.6c0-0.6,0-1.2,0-1.9c0-0.6,0-1.1,0-1.7c-0.6,0-1.2,0-1.8,0.1c-1.2-0.4-2.4-0.8-3.5-1.2
		c0.6-0.5,1.2-1,1.8-1.5c0.7-1,1.4-2,2-3c0,0-0.3,0.3-0.3,0.3C150.9,207.2,152.5,206.5,154.1,205.9z"/>
	<path id="XMLID_398_" d="M133.4,235.2c0.3-1.4,0.5-2.9,0.8-4.3c1.6,0.6,3.1,1.1,4.7,1.7c0.6,0.6,1.2,1.2,1.8,1.8
		c0.6,0.7,1.2,1.3,1.8,2c0,0,0.3,0.2,0.3,0.2c-0.1,0.7-0.2,1.5-0.3,2.2c-1,1-1.9,1.9-2.9,2.9c-0.5,0-1,0-1.5,0c-1-0.7-2-1.3-3-2
		c0,0,0.3,0.3,0.3,0.3C134.7,238.3,134.1,236.7,133.4,235.2z"/>
	<path id="XMLID_397_" d="M143.4,214.8c0,0-0.3,0-0.3,0c1,0.6,2,1.2,3,1.8c0,0.6,0,1.3,0,1.9c0,1.1,0,2.2,0,3.3c0,0.7,0,1.4,0,2.1
		c-1.8-0.7-3.6-1.4-5.4-2.1c0,0,0.1,0.2,0.1,0.2c-0.7,0-1.4,0-2.1,0c0,0-0.3,0-0.3,0c-0.5-0.9-0.9-1.7-1.4-2.6c0.7-1,1.3-2,2-3
		c0,0-0.3,0.3-0.3,0.3C140.2,216.1,141.8,215.4,143.4,214.8z"/>
	<path id="XMLID_396_" d="M178,215.9c0,0.5,0,1,0,1.5c-0.7,1-1.3,2-2,3c0,0,0.3-0.3,0.3-0.3c-1.2,0-2.5-0.1-3.7-0.1
		c0,0,0.2,0.3,0.2,0.3c-0.7-0.7-1.4-1.4-2.1-2.1c0,0,0.2,0.4,0.2,0.4c-0.1-1.3-0.1-2.5-0.2-3.8c0.7-0.6,1.4-1.2,2.1-1.9l-0.3,0.2
		c1.2,0,2.4,0,3.6,0.1L176,213C176.7,213.9,177.4,214.9,178,215.9z"/>
	<path id="XMLID_395_" d="M160.2,240.2c-2-1.3-4.1-2.6-6.1-3.9c-0.4-0.6-0.8-1.3-1.2-1.9c1-0.6,2-1.2,3-1.8c0,0-0.3,0-0.3,0
		c1.6,0.6,3.1,1.1,4.7,1.7c-0.1,1.2-0.2,2.4-0.3,3.6l0.2-0.1c0,0.7,0,1.4,0,2.1L160.2,240.2z"/>
	<path id="XMLID_394_" d="M167.4,233.6c0,0-0.1-0.3-0.1-0.3c-0.6,1.6-1.3,3.2-1.9,4.8c0,0,0.3-0.2,0.3-0.2c-1.2-1.2-2.3-2.4-3.5-3.6
		c0,0-0.2,0.2-0.2,0.2c0-0.7,0-1.4,0-2.2l0.1-0.4c0.8-0.4,1.7-0.9,2.5-1.3C165.5,231.7,166.4,232.7,167.4,233.6z"/>
	<path id="XMLID_393_" class="st0" d="M176.2,213.2c-1.2,0-2.4,0-3.6-0.1c0.8-2.4,1.7-4.9,2.5-7.3c0,0,0.3,0.1,0.3,0.1
		c0.9,2.1,1.9,4.2,2.8,6.3C177.5,212.5,176.9,212.9,176.2,213.2z"/>
	<path id="XMLID_392_" class="st0" d="M151.1,216.7c1.9,0.5,3.7,1.1,5.6,1.6c0.3,1.3,0.6,2.5,0.9,3.8c-1.6-0.1-3.1-0.2-4.7-0.2
		c0,0,0.3,0.2,0.3,0.2c-0.6-1.8-1.2-3.7-1.9-5.5L151.1,216.7z"/>
	<path id="XMLID_391_" class="st0" d="M146.1,218.5c0-0.6,0-1.3,0-1.9l-0.2,0.2c0.2-0.2,0.5-0.5,0.5-0.7c-0.1-0.5-0.3-1-0.5-1.4
		c0,0,0.2,0.3,0.2,0.3c-0.1-1-0.1-1.9-0.2-2.9c1.2,0.4,2.4,0.8,3.5,1.2c0,0-0.1-0.2-0.1-0.2c0.7,0.7,1.4,1.3,2,2l-0.2-0.1
		c0,0.6,0,1.2,0,1.9c0,0,0.2-0.2,0.2-0.2c-1.9,0.6-3.7,1.2-5.6,1.8C145.8,218.3,146.1,218.5,146.1,218.5z"/>
	<path id="XMLID_390_" class="st0" d="M140.7,221.8c1.8,0.7,3.6,1.4,5.4,2.1c0,0-0.2-0.3-0.2-0.3c0,0.7,0,1.3,0,2l0.2-0.3
		c-1.3,0.7-2.6,1.3-3.9,2l0.1-0.3c-0.6,0-1.2,0-1.8,0l0.2,0.3c-0.8-0.4-1.6-0.8-2.4-1.1c0-1.5,0-3,0-4.5
		C139.2,221.8,139.9,221.8,140.7,221.8z"/>
	<path id="XMLID_389_" class="st0" d="M162.2,234.4c1.2,1.2,2.3,2.4,3.5,3.5c-1.9,0.7-3.7,1.5-5.6,2.2c0.2-0.2,0.5-0.5,0.5-0.7
		c-0.1-0.6-0.4-1.1-0.6-1.6c0.1-1.2,0.2-2.4,0.3-3.6l-0.2,0.2C160.8,234.4,161.5,234.4,162.2,234.4z"/>
	<path id="XMLID_388_" class="st0" d="M152.9,234.4c0.4,0.6,0.8,1.3,1.2,1.9c-2.5-0.6-4.9-1.2-7.4-1.8c0.4-0.6,0.7-1.2,1.1-1.8
		l-0.2,0.2c1.3,0,2.5-0.1,3.8-0.1c0,0-0.2-0.3-0.2-0.3c0.7,0.7,1.4,1.4,2,2L152.9,234.4z"/>
	<path id="XMLID_387_" class="st0" d="M160.9,222c1.9-0.7,3.8-7,5.6,0C164.7,222,162.8,222,160.9,222z"/>
	<path id="XMLID_386_" class="st0" d="M140.5,227.1c0,1.3-0.1,2.5-0.1,3.8c0,0,0.3-0.2,0.3-0.2c-0.7,0-1.4,0-2,0l0.3,0.2
		c-0.2-1.6-0.3-3.3-0.5-4.9c0.8,0.5,1.6,0.9,2.3,1.3L140.5,227.1z"/>
	<path id="XMLID_385_" class="st0" d="M143.4,214.8c-1.6,0.6-3.2,1.3-4.8,1.9C140.2,216.1,141.8,215.4,143.4,214.8z"/>
	<path id="XMLID_384_" class="st0" d="M138.9,232.5c-1.6-0.6-3.1-1.1-4.7-1.7c1.6,0.1,3.2,0.1,4.8,0.2c0,0-0.3-0.2-0.3-0.2
		c0,0.7,0,1.4,0,2L138.9,232.5z"/>
	<path id="XMLID_383_" class="st0" d="M154.1,205.9c-1.6,0.6-3.2,1.3-4.8,1.9C150.9,207.2,152.5,206.5,154.1,205.9z"/>
	<path id="XMLID_382_" class="st0" d="M160.3,234.3c-1.6-0.6-3.1-1.1-4.7-1.7c2.2-0.2,4.5-0.3,6.7-0.5c-0.8,0.8-1.5,1.6-2.3,2.4
		C160,234.5,160.3,234.3,160.3,234.3z"/>
	<path id="XMLID_381_" class="st0" d="M165.4,238.1c0.6-1.6,1.3-3.2,1.9-4.8C166.7,235,166.1,236.5,165.4,238.1z"/>
	<path id="XMLID_380_" class="st0" d="M133.4,235.2c0.6,1.6,1.3,3.2,1.9,4.8C134.7,238.3,134.1,236.7,133.4,235.2z"/>
	<path id="XMLID_379_" d="M91.7,253.9c0.6,0,1.1,0,1.7,0c0.3,0.7,0.7,1.4,1,2.1c0,0,0.1-0.3,0.1-0.3c-1.3,0-2.6,0-4,0
		c0,0,0.2,0.3,0.2,0.3C91.1,255.3,91.4,254.6,91.7,253.9z"/>
	<path id="XMLID_378_" class="st0" d="M90.5,255.7c1.3,0,2.6,0,4,0C93.2,255.7,91.9,255.7,90.5,255.7z"/>
	<path id="XMLID_377_" class="st0" d="M172.7,220c1.2,0,2.5,0.1,3.7,0.1c-2,0.8-4,1.6-5.9,2.4C171.2,221.6,172,220.8,172.7,220z"/>
	<path id="XMLID_376_" class="st0" d="M89.1,216.6c0.2,0.1,0.4,0.3,0.6,0.4c-0.1-0.2-0.3-0.4-0.4-0.6L89.1,216.6z"/>
	<path id="XMLID_375_" class="st0" d="M139,216.4c-0.7,1-1.3,2-2,3C137.6,218.4,138.3,217.4,139,216.4z"/>
	<path id="XMLID_374_" class="st0" d="M176.1,220.4c0.7-1,1.3-2,2-3C177.4,218.4,176.7,219.4,176.1,220.4z"/>
	<path id="XMLID_373_" class="st0" d="M157.3,222c1.3,0,2.6,0,3.9,0C160,222,158.6,222,157.3,222z"/>
	<path id="XMLID_372_" d="M172.7,220c-0.7,0.8-1.4,1.6-2.2,2.4c0,0,0.3,0,0.3,0c0,0,0.1-0.4,0.1-0.4c0-0.7,0-1.4,0-2.2l-0.1,0.3
		c0.7,0,1.4,0,2.1,0L172.7,220z"/>
	<path id="XMLID_371_" d="M140.7,221.8c-0.8,0-1.5,0-2.3,0c0,0-0.1,0.1-0.1,0.1c0,0,0.3,0,0.3,0c0.7,0,1.4,0,2.1,0
		C140.8,222,140.7,221.8,140.7,221.8z"/>
	<path id="XMLID_370_" class="st0" d="M171.9,195.2c0,0,0.3-0.2,0.3-0.2S171.9,195.2,171.9,195.2z"/>
	<path id="XMLID_369_" class="st0" d="M153,221.8c0.1,1,0.2,1.9,0.3,2.9c-0.7-0.4-1.4-0.7-2.2-1.1c0,0,0.2,0.2,0.2,0.2
		c0.6-0.6,1.2-1.2,1.9-1.8C153.2,222,153,221.8,153,221.8z"/>
	<path id="XMLID_368_" d="M151.2,223.6c0.7,0.4,1.4,0.7,2.2,1.1c0,0-0.2-0.2-0.2-0.2c-0.7,0.3-1.3,0.6-2,0.9c0,0,0.3,0.2,0.3,0.2
		C151.3,225,151.2,224.3,151.2,223.6z"/>
	<path id="XMLID_367_" d="M140.8,227.4c-0.8-0.4-1.5-0.9-2.3-1.3c0,0,0,0.2,0,0.2C139.2,226.7,140,227.1,140.8,227.4z"/>
	<path id="XMLID_366_" class="st0" d="M151.1,225.4c0.7-0.3,1.3-0.6,2-0.9c0,1.3,0,2.6,0,3.9C152.5,227.4,151.8,226.4,151.1,225.4z"
		/>
	<path id="XMLID_365_" class="st0" d="M151.3,232.8c0.6-1,1.2-2,1.8-3c-0.1,1-0.1,2-0.2,3c0,0,0.2-0.2,0.2-0.2c-0.7,0-1.4,0-2.1,0
		L151.3,232.8z"/>
	<path id="XMLID_364_" class="st0" d="M149.7,207.5c-0.7,1-1.4,2-2,3C148.3,209.5,149,208.5,149.7,207.5z"/>
	<path id="XMLID_363_" class="st0" d="M167.4,233.6c-1-1-1.9-1.9-2.9-2.9C165.5,231.7,166.4,232.7,167.4,233.6z"/>
	<path id="XMLID_362_" class="st0" d="M155.9,232.6c-1,0.6-2,1.2-3,1.8c0,0,0.2,0.2,0.2,0.2c0-0.7,0-1.4,0-2c0,0-0.2,0.2-0.2,0.2
		C153.9,232.7,154.9,232.6,155.9,232.6z"/>
	<path id="XMLID_361_" d="M160,234.5c0.8-0.8,1.5-1.6,2.3-2.4c0,0-0.3,0-0.3,0c0,0-0.1,0.4-0.1,0.4c0,0.7,0,1.4,0,2.2
		c0,0,0.2-0.2,0.2-0.2C161.5,234.4,160.8,234.4,160,234.5z"/>
	<path id="XMLID_360_" d="M176.2,213.2c0.7-0.3,1.4-0.7,2.1-1c0,0-0.2-0.2-0.2-0.2c-0.7,0.3-1.4,0.6-2,0.9L176.2,213.2z"/>
	<path id="XMLID_359_" d="M160,237.8c0.2,0.5,0.5,1,0.6,1.6c0,0.2-0.3,0.5-0.5,0.7c0,0,0.1,0.1,0.1,0.1s0-0.3,0-0.3
		c0-0.7,0-1.4,0-2.1L160,237.8z"/>
	<path id="XMLID_358_" class="st0" d="M139.6,241.6c1-1,1.9-1.9,2.9-2.9C141.5,239.7,140.6,240.7,139.6,241.6z"/>
	<path id="XMLID_357_" class="st0" d="M91.7,253.9c-0.3,0.7-0.7,1.4-1,2.1C91.1,255.3,91.4,254.6,91.7,253.9z"/>
	<path id="XMLID_356_" class="st0" d="M94.4,256c-0.3-0.7-0.7-1.4-1-2.1C93.7,254.6,94.1,255.3,94.4,256z"/>
	<path id="XMLID_355_" class="st0" d="M176,213c0.7-0.3,1.4-0.6,2-0.9c0,1.3,0,2.6,0,3.8C177.4,214.9,176.7,213.9,176,213z"/>
	<path id="XMLID_354_" class="st0" d="M89.3,216.3l-0.7,0c0,0,0.4,0.3,0.5,0.2C89.1,216.6,89.3,216.3,89.3,216.3z"/>
	<path id="XMLID_353_" class="st0" d="M146.1,216.6c-1-0.6-2-1.2-3-1.8c1,0,2,0.1,3,0.1c0,0-0.2-0.3-0.2-0.3c0,0.7,0,1.4,0,2.2
		L146.1,216.6z"/>
	<path id="XMLID_352_" class="st0" d="M135.1,239.6c1,0.7,2,1.3,3,2C137.1,240.9,136.1,240.3,135.1,239.6z"/>
	<path id="XMLID_351_" d="M175.1,205.8c-0.9,2.4-1.7,4.9-2.5,7.3c0,0,0.3-0.2,0.3-0.2c-0.7,0.1-1.3,0.2-2,0.2c-0.6,0-1.1,0-1.7,0
		c-1.3,0-2.5,0-3.8,0c-0.6-1.2-1.2-2.3-1.7-3.5c0-0.7,0-1.4,0-2c0-0.6,0-1.1,0-1.7c-0.3-0.7-0.6-1.5-0.9-2.2
		c1.8,0.1,3.6,0.1,5.4,0.2c0.4,0.7,0.7,1.5,1.1,2.2l-0.4-0.3c0.3,0.9,0.5,1.7,0.8,2.6c0.4-0.9,0.8-1.7,1.2-2.6c0,0-0.4,0.3-0.4,0.3
		c1.3-0.2,2.6-0.5,3.9-0.7l0.1,0.5L175.1,205.8z"/>
	<path id="XMLID_350_" class="st0" d="M156.7,205.4c0.8-0.4,1.6-0.9,2.4-1.3c1,0.7,1.9,1.3,2.9,2c0,0-0.1-0.2-0.1-0.2
		c0,0.7,0,1.3,0,2c0,0,0.2-0.2,0.2-0.2c-1.2,0-2.5,0-3.7,0l0.2,0.2c-0.7-0.7-1.4-1.3-2-2C156.5,205.8,156.7,205.4,156.7,205.4z"/>
	<path id="XMLID_349_" class="st0" d="M174.5,205.4c-1.3,0.2-2.6,0.5-3.9,0.7c0.5-0.7,0.9-1.4,1.4-2.1
		C172.8,204.5,173.6,205,174.5,205.4z"/>
	<path id="XMLID_348_" d="M162,206c-1-0.7-1.9-1.3-2.9-2c1.3-0.1,2.7-0.3,4-0.4C162.7,204.5,162.4,205.3,162,206z"/>
	<path id="XMLID_347_" class="st0" d="M162,206c0.4-0.8,0.7-1.5,1.1-2.3c0,0-0.3,0-0.3,0c0.3,0.7,0.6,1.4,0.9,2.2
		c0,0,0.2-0.1,0.2-0.1c-0.7,0-1.3,0-2,0L162,206z"/>
	<path id="XMLID_346_" class="st0" d="M169.4,206.1c-0.4-0.7-0.7-1.5-1.1-2.2c0,0-0.2,0.2-0.2,0.2
		C168.5,204.8,168.9,205.5,169.4,206.1z"/>
	<path id="XMLID_345_" class="st0" d="M156.7,207.6c-0.2-0.5-0.4-1-0.4-1.6c0-0.2,0.4-0.4,0.6-0.6c0,0-0.3,0-0.3,0
		c0,0-0.1,0.4-0.1,0.4c0,0.7,0,1.4,0,2L156.7,207.6z"/>
	<path id="XMLID_344_" d="M169.4,206.1c-0.4-0.7-0.9-1.4-1.3-2.1c1.3,0,2.6,0,3.8,0c-0.5,0.7-0.9,1.4-1.4,2.1c0,0,0.4-0.3,0.4-0.3
		c-0.7,0-1.3,0-2,0L169.4,206.1z"/>
	<path id="XMLID_343_" class="st0" d="M151.2,223.6c0.1,0.7,0.2,1.3,0.3,2c-1.2-0.1-2.5-0.2-3.7-0.3c0,0,0.2,0.3,0.2,0.3
		c0-0.7,0-1.3,0-2l-0.2,0.2c1.2,0,2.5,0,3.7,0L151.2,223.6z"/>
	<path id="XMLID_342_" class="st0" d="M145.8,227.2c-1.2,0-2.3-0.1-3.5-0.1c0,0-0.1,0.3-0.1,0.3c1.3,0,2.6,0,3.9,0L145.8,227.2z"/>
	<path id="XMLID_341_" class="st0" d="M147.7,225.4c-0.6,0.6-1.2,1.2-1.9,1.9c0,0,0.3,0.2,0.3,0.2c0-0.7,0-1.4,0-2
		c0,0-0.2,0.3-0.2,0.3c0.7,0,1.3,0,2,0L147.7,225.4z"/>
	<path id="XMLID_340_" class="st0" d="M140.5,230.9c0.6,0.6,1.2,1.1,1.8,1.7c0,0,0.3-0.1,0.3-0.1c-0.7,0-1.3,0-2,0
		c0,0,0.2,0.2,0.2,0.2c0-0.7,0-1.3,0-2L140.5,230.9z"/>
	<path id="XMLID_339_" class="st0" d="M147.8,232.7l-0.3-0.4c0,0,0.1,0.6,0.1,0.6C147.6,232.9,147.8,232.7,147.8,232.7z"/>
	<path id="XMLID_338_" class="st0" d="M142.3,232.6c0.2,0.4,0.4,0.8,0.5,1.2c0,0.1-0.3,0.3-0.5,0.5c0,0,0.3,0.3,0.3,0.3
		c0-0.7,0-1.3,0-2L142.3,232.6z"/>
	<path id="XMLID_337_" class="st0" d="M142.5,236.3c-0.6-0.7-1.2-1.3-1.8-2l-0.2,0.2c0.7,0,1.3,0,2,0c0,0-0.3-0.3-0.3-0.3
		C142.3,235,142.4,235.6,142.5,236.3z"/>
	<path id="XMLID_336_" class="st0" d="M161.9,214.7c-1.2,0.6-2.3,1.2-3.5,1.8c0,0,0.1,0.2,0.1,0.2c0-0.7,0-1.3,0-2
		c0,0-0.2,0.2-0.2,0.2c1.3,0,2.5,0,3.8,0L161.9,214.7z"/>
	<path id="XMLID_335_" class="st0" d="M170.7,214.8c0.1,1.3,0.1,2.5,0.2,3.8c-0.6-1.3-1.2-2.6-1.7-3.9c0,0-0.2,0.2-0.2,0.2
		c0.7,0,1.3,0,2,0C171,214.9,170.7,214.8,170.7,214.8z"/>
	<path id="XMLID_334_" class="st0" d="M165.4,213.1c1.3,0,2.5,0,3.8,0l-0.2-0.3c0,0.7,0,1.4,0,2c0,0,0.2-0.2,0.2-0.2
		c-1.3,0-2.5,0-3.8,0c0,0,0.2,0.3,0.2,0.3c0-0.7,0-1.4,0-2L165.4,213.1z"/>
	<path id="XMLID_333_" class="st0" d="M165.5,214.7c-0.3,0.4-0.5,0.8-0.8,1.2c-0.3-0.4-0.5-0.8-0.8-1.2c0,0-0.2,0.2-0.2,0.2
		c0.7,0,1.3,0,2,0C165.6,215,165.5,214.7,165.5,214.7z"/>
	<path id="XMLID_332_" class="st0" d="M156.5,218.6c0.1-0.6,0.1-1.3,0.2-1.9l-0.2,0.1c0.7,0,1.3,0,2,0c0,0-0.1-0.2-0.1-0.2
		C157.8,217.2,157.1,217.9,156.5,218.6z"/>
	<path id="XMLID_331_" class="st0" d="M172.8,220.3c-0.7,0-1.4,0-2.1,0c0-0.7,0-1.4,0-2.1C171.5,218.9,172.1,219.6,172.8,220.3z"/>
	<path id="XMLID_330_" class="st0" d="M170.9,220c0,0.7,0,1.4,0,2.2C170.9,221.4,170.9,220.7,170.9,220z"/>
	<path id="XMLID_329_" class="st0" d="M163.9,214.7c-0.7,0-1.3,0-2,0c0,0,0.2,0.2,0.2,0.2c-0.1-0.7-0.1-1.4-0.2-2.1
		c0.6,0.1,1.3,0.2,1.9,0.3c0,0-0.2-0.2-0.2-0.2c0,0.7,0,1.3,0,2L163.9,214.7z"/>
	<path id="XMLID_328_" class="st0" d="M156.8,212.9c0-1.1,0-2.2,0-3.3c0,0-0.2-0.2-0.2-0.2c0,1.3,0,2.5,0,3.8
		C156.5,213.2,156.8,212.9,156.8,212.9z"/>
	<path id="XMLID_327_" class="st0" d="M156.7,209.6c0-0.7,0-1.4,0-2.1c0,0-0.2,0.2-0.2,0.2c0.7,0,1.4,0,2.1,0c0,0-0.2-0.2-0.2-0.2
		c-0.6,0.6-1.2,1.2-1.8,1.8L156.7,209.6z"/>
	<path id="XMLID_326_" class="st0" d="M149.4,213.2c0.6,0,1.2,0,1.8-0.1c0,0,0.3-0.2,0.3-0.2c-0.7,0-1.4,0-2.1,0
		C149.3,213,149.4,213.2,149.4,213.2z"/>
	<path id="XMLID_325_" class="st0" d="M151.2,213.1c0,0.6,0,1.1,0,1.7c0,0,0.2,0.1,0.2,0.1c0-0.7,0-1.4,0.1-2L151.2,213.1z"/>
	<path id="XMLID_324_" class="st0" d="M156.7,214.8c0-0.6,0-1.2,0-1.8c0,0-0.2,0.2-0.2,0.2c0.6-0.1,1.3-0.2,1.9-0.3
		c0,0.7-0.1,1.4-0.1,2c0,0,0.2-0.2,0.2-0.2c-0.7,0-1.3,0-2,0L156.7,214.8z"/>
	<path id="XMLID_323_" class="st0" d="M156.7,216.7c0-0.6,0-1.3,0-1.9c0,0-0.2-0.1-0.2-0.1c0,0.7,0,1.4,0,2L156.7,216.7z"/>
	<path id="XMLID_322_" class="st0" d="M140.7,234.3c-0.6-0.6-1.2-1.2-1.8-1.8c0,0-0.2,0.2-0.2,0.2c0.7,0,1.3,0,2,0
		c0,0-0.2-0.2-0.2-0.2c0,0.7,0,1.3,0,2L140.7,234.3z"/>
	<path id="XMLID_321_" class="st0" d="M146.1,221.8c0-1.1,0-2.2,0-3.3c0,0-0.2-0.2-0.2-0.2c0,1.2,0,2.5,0,3.7
		C145.8,222,146.1,221.8,146.1,221.8z"/>
	<path id="XMLID_320_" class="st0" d="M140.8,222c-0.7,0-1.4,0-2.1,0C139.4,222,140.1,222,140.8,222z"/>
	<path id="XMLID_319_" class="st0" d="M146.1,223.9c0-0.7,0-1.4,0-2.1c0,0-0.2,0.2-0.2,0.2c0.6,0.6,1.2,1.2,1.9,1.9
		c0,0,0.2-0.2,0.2-0.2c-0.7,0-1.3,0-2,0L146.1,223.9z"/>
	<path id="XMLID_318_" class="st0" d="M170.8,213.2c0.7-0.1,1.3-0.2,2-0.2c-0.7,0.6-1.4,1.2-2.1,1.9c0,0,0.2,0.2,0.2,0.2
		c0-0.7,0-1.4,0-2L170.8,213.2z"/>
	<path id="XMLID_317_" class="st0" d="M160.2,237.8c0,0.7,0,1.4,0,2.1C160.2,239.2,160.2,238.5,160.2,237.8z"/>
	<path id="XMLID_316_" class="st0" d="M162,234.6c0-0.7,0-1.4,0-2.2C162,233.2,162,233.9,162,234.6z"/>
	<path id="XMLID_315_" d="M147.7,223.9c-0.6-0.6-1.2-1.2-1.9-1.9c0-1.2,0-2.5,0-3.7c1.9-0.6,3.7-1.2,5.6-1.8
		c0.6,1.8,1.2,3.7,1.9,5.5c-0.6,0.6-1.2,1.2-1.9,1.8C150.1,223.9,148.9,223.9,147.7,223.9z"/>
	<path id="XMLID_314_" d="M151.4,212.9c0,0.7,0,1.4-0.1,2c-0.7-0.7-1.4-1.3-2-2C150,213,150.7,212.9,151.4,212.9z"/>
	<path id="XMLID_313_" d="M145.9,216.8c0-0.7,0-1.4,0-2.2c0.2,0.5,0.4,0.9,0.5,1.4C146.4,216.3,146,216.6,145.9,216.8z"/>
	<path id="XMLID_312_" d="M146.1,225.4c0,0.7,0,1.4,0,2c-1.3,0-2.6,0-3.9,0C143.5,226.7,144.8,226,146.1,225.4z"/>
	<path id="XMLID_311_" d="M145.8,223.6c0.7,0,1.3,0,2,0c0,0.7,0,1.3,0,2c-0.7,0-1.3,0-2,0C145.8,225,145.8,224.3,145.8,223.6z"/>
	<path id="XMLID_310_" d="M153.2,232.5c0,0.7,0,1.4,0,2c-0.7-0.7-1.4-1.4-2-2C151.8,232.5,152.5,232.5,153.2,232.5z"/>
	<path id="XMLID_309_" d="M140.7,232.8c-0.7,0-1.3,0-2,0c0-0.7,0-1.4,0-2c0.7,0,1.4,0,2,0C140.7,231.4,140.7,232.1,140.7,232.8z"/>
	<path id="XMLID_308_" class="st0" d="M169,205.8c0.7,0,1.3,0,2,0c-0.4,0.9-0.8,1.7-1.2,2.6C169.5,207.5,169.3,206.7,169,205.8z"/>
	<path id="XMLID_307_" class="st0" d="M163.6,209.6c0.6,1.2,1.2,2.3,1.7,3.5c0,0,0.2-0.2,0.2-0.2c-0.7,0-1.3,0-2,0
		c0,0,0.2,0.2,0.2,0.2c0-1.2,0-2.5,0-3.7L163.6,209.6z"/>
	<path id="XMLID_306_" class="st0" d="M163.7,205.9c0,0.6,0,1.1-0.1,1.7l0.2,0.3c0-0.7,0-1.4,0-2L163.7,205.9z"/>
	<path id="XMLID_305_" class="st0" d="M163.6,207.6c0,0.7,0,1.4,0,2c0,0,0.2-0.2,0.2-0.2c-0.6-0.6-1.2-1.2-1.9-1.8
		c0,0-0.2,0.2-0.2,0.2c0.7,0,1.3,0,2,0C163.9,207.8,163.6,207.6,163.6,207.6z"/>
	<path id="XMLID_304_" class="st0" d="M169.1,213.2c0.6,0,1.1,0,1.7,0c0,0,0.2-0.3,0.2-0.3c-0.7,0-1.3,0-2,0L169.1,213.2z"/>
	<path id="XMLID_303_" d="M162,207.6c0.6,0.6,1.2,1.2,1.9,1.8c0,1.2,0,2.5,0,3.7c-0.6-0.1-1.3-0.2-1.9-0.3c0,0,0.3,0.2,0.3,0.2
		c-1.3,0-2.7,0-4,0l0.3-0.2c-0.6,0.1-1.3,0.2-1.9,0.3c0-1.3,0-2.5,0-3.8c0.6-0.6,1.2-1.2,1.8-1.8C159.6,207.6,160.8,207.6,162,207.6
		z"/>
	<path id="XMLID_302_" d="M158.6,207.8c-0.7,0-1.4,0-2.1,0c0-0.7,0-1.4,0-2C157.2,206.5,157.9,207.1,158.6,207.8z"/>
	<path id="XMLID_301_" d="M163.9,207.8c-0.7,0-1.3,0-2,0c0-0.7,0-1.3,0-2c0.7,0,1.3,0,2,0C163.9,206.5,163.9,207.1,163.9,207.8z"/>
	<path id="XMLID_300_" d="M140.5,234.5c0-0.7,0-1.3,0-2c0.7,0,1.3,0,2,0c0,0.7,0,1.4,0,2C141.8,234.5,141.2,234.5,140.5,234.5z"/>
	<path id="XMLID_299_" d="M158.3,214.9c0-0.7,0.1-1.4,0.1-2c0,0-0.3,0.2-0.3,0.2c1.3,0,2.7,0,4,0c0,0-0.3-0.2-0.3-0.2
		c0.1,0.7,0.1,1.4,0.2,2.1C160.8,214.9,159.6,214.9,158.3,214.9z"/>
	<path id="XMLID_298_" d="M156.5,216.7c0-0.7,0-1.4,0-2c0.7,0,1.3,0,2,0c0,0.7,0,1.3,0,2C157.9,216.7,157.2,216.7,156.5,216.7z"/>
	<path id="XMLID_297_" d="M169,212.9c0.7,0,1.3,0,2,0c0,0.7,0,1.4,0,2c-0.7,0-1.3,0-2,0C169,214.3,169,213.6,169,212.9z"/>
	<path id="XMLID_296_" d="M163.6,212.9c0.7,0,1.3,0,2,0c0,0.7,0,1.4,0,2c-0.7,0-1.3,0-2,0C163.6,214.3,163.6,213.6,163.6,212.9z"/>
	<path id="XMLID_295_" class="st0" d="M162.2,213.1c-1.3,0-2.7,0-4,0C159.5,213.1,160.9,213.1,162.2,213.1z"/>
</g>
</svg>
